# xmcd
# 
# Track frame offsets:
#     150
#     11846
#     25180
#     37253
#     49078
#     59814
#     73032
#     82097
#     92114
#     104706
#     118458
#     130578
#     143388
#     157648
#     166576
#     177549
# 
# Disc length: 2509
# 
# Revision: 1
# Processed by: cddbd v1.5.2PL0 Copyright (c) Steve Scherf et al.
# Submitted via: BonkEnc v1.0.8
# 
DISCID=e009cb10
DTITLE=Ralph Stanley and The Clinch Mountain Boys - The Complete Jessup Recordings Plus! disc 1
DYEAR=0
DGENRE=
TTITLE0=We'll Be Sweethearts in Heaven
TTITLE1=Mother No Longer Awaits Me at Home
TTITLE2=Our Last Goodbye
TTITLE3=Lonesome River
TTITLE4=I Love No One but You
TTITLE5=It's Never Too Late
TTITLE6=Loving You Too Well
TTITLE7=Too Late to Cry
TTITLE8=Little Glass of Wine
TTITLE9=I Long to See the Old Folks
TTITLE10=Are You Proud of America
TTITLE11=Rock Bottom
TTITLE12=Another Song, Another Drink
TTITLE13=Take Me Back
TTITLE14=You're going Away
TTITLE15=Hulla-Gull
EXTD=
EXTT0=
EXTT1=
EXTT2=
EXTT3=
EXTT4=
EXTT5=
EXTT6=
EXTT7=
EXTT8=
EXTT9=
EXTT10=
EXTT11=
EXTT12=
EXTT13=
EXTT14=
EXTT15=
PLAYORDER=
